<svg width="161" height="48" viewBox="0 0 161 48" fill="none" xmlns="http://www.w3.org/2000/svg">
<path fill-rule="evenodd" clip-rule="evenodd" d="M39.0414 28.2166C36.6858 29.0557 34.0255 28.4532 32.2603 26.6789L29.5909 23.9987L31.0664 22.5156H31.687C34.5807 22.5156 37.2823 21.1053 38.967 18.8224L44.1167 23.9997L41.4513 26.6789C40.7624 27.3724 39.9497 27.89 39.0414 28.2166ZM34.4168 38.3899C33.4442 38.3899 32.5068 38.1786 31.6337 37.761C29.3757 36.6833 27.9153 34.3651 27.9153 31.8548V28.0656H30.0073L30.4449 28.5044C32.1688 30.2382 34.5063 31.1703 36.881 31.1703C37.3165 31.1703 37.7531 31.1319 38.1866 31.0682V38.3899H34.4168ZM21.2065 41.6657C20.5185 40.9742 20.0066 40.1603 19.6847 39.2444C18.8449 36.8797 19.4423 34.2046 21.2065 32.4272L23.8719 29.7481L25.3484 31.2312V31.854C25.3484 34.7566 26.7495 37.4711 29.0216 39.1726L23.8729 44.3479L21.2065 41.6657ZM9.55717 34.5986C9.55717 33.619 9.76839 32.6798 10.1878 31.8002C11.255 29.5315 13.5593 28.0656 16.0567 28.0656H19.8275V30.1634L19.39 30.6032C17.3492 32.6595 16.4319 35.5753 16.8432 38.3899H9.55717V34.5986ZM6.29648 21.3207C6.98847 20.6241 7.79815 20.1085 8.70338 19.787C11.06 18.9438 13.7224 19.5464 15.4876 21.3217L18.1529 23.9998L16.6774 25.4839H16.0568C13.1672 25.4839 10.4676 26.8923 8.77881 29.1741L3.63108 23.9998L6.29648 21.3207ZM13.331 9.61133C14.3046 9.61133 15.241 9.82263 16.114 10.2392C18.3701 11.3169 19.8275 13.6351 19.8275 16.1454V19.9346H17.7394L17.3039 19.4958C15.2611 17.4435 12.3604 16.5195 9.55717 16.9319V9.61133H13.331ZM23.8719 3.65063L26.5413 6.3328C27.2343 7.02938 27.7473 7.84323 28.0671 8.75312C28.9049 11.1189 28.3055 13.796 26.5413 15.5723L23.8729 18.2524L22.3954 16.7683V16.1455C22.3954 13.243 20.9963 10.5294 18.7252 8.82693L23.8719 3.65063ZM25.3485 25.4846V27.5824L23.8719 26.0983L22.3954 27.5824V25.4846H20.3084L21.7849 24.0005L20.3084 22.5163H22.3954V20.4175L23.8719 21.9017L25.3485 20.4185V22.5163H27.4355L25.959 24.0015L27.4365 25.4846H25.3485ZM38.1866 13.4015C38.1866 14.3782 37.9753 15.3164 37.5559 16.1969C36.4928 18.4676 34.1895 19.9346 31.687 19.9346H27.9153V17.8408L28.3588 17.397C30.3976 15.3427 31.3159 12.4259 30.9075 9.61133H38.1866V13.4015ZM47.7477 24L40.2313 16.4428C40.5773 15.4723 40.7543 14.4522 40.7543 13.4017V7.03046H30.133C29.6935 6.10034 29.099 5.25515 28.3578 4.50904L23.8719 0L16.3605 7.55415C15.3909 7.20738 14.377 7.03046 13.331 7.03046H6.98936V17.7116C6.06402 18.1534 5.22216 18.7499 4.48188 19.496L0 24L7.51238 31.5511C7.16638 32.5247 6.98936 33.5458 6.98936 34.5983V40.9695H17.6197C18.0593 41.9017 18.6517 42.7479 19.39 43.49L23.8719 48L31.3873 40.4459C32.3568 40.7926 33.3707 40.9695 34.4167 40.9695H40.7543V30.2904C41.6847 29.8446 42.5276 29.2481 43.2668 28.504L47.7477 24Z" fill="#25B072"/>
<path fill-rule="evenodd" clip-rule="evenodd" d="M74.8403 28.5052L70.0859 19.4679L64.2968 30.6232C65.0804 30.2167 66.2888 29.7603 67.9211 29.2583C69.5523 28.7572 71.6398 28.5052 74.1817 28.5052H74.8403ZM65.9911 11.6543H71.2161L84.3949 36.6013H79.0764L77.1474 32.9303H74.2285C72.7223 32.9303 71.2313 33.0563 69.7566 33.3063C68.2819 33.5584 66.9403 33.8633 65.7329 34.2241C64.5245 34.5849 63.5041 34.9619 62.6727 35.3532C61.8414 35.7465 61.3312 36.0677 61.1432 36.3177L61.0019 36.6013H55.9192L67.5918 14.7145L65.9911 11.6543Z" fill="white"/>
<path fill-rule="evenodd" clip-rule="evenodd" d="M93.3376 17.0672V31.7055H98.1672C100.512 31.7055 102.324 31.0631 103.607 29.7765C104.887 28.4898 105.529 26.6695 105.529 24.3157C105.529 21.9314 104.887 20.1274 103.607 18.9037C102.324 17.68 100.512 17.0672 98.1672 17.0672H93.3376ZM83.0288 12.2192H98.1387C99.9589 12.2192 101.629 12.4774 103.151 12.9957C104.673 13.5141 105.976 14.2834 107.058 15.3028C108.14 16.3232 108.98 17.5774 109.577 19.0683C110.171 20.5593 110.47 22.2769 110.47 24.2222C110.47 26.1054 110.18 27.8149 109.6 29.3526C109.02 30.8903 108.187 32.1923 107.105 33.2594C106.022 34.3256 104.719 35.1498 103.198 35.7301C101.676 36.3115 99.9894 36.6011 98.1387 36.6011H88.207V17.0672H85.1946L83.0288 12.2192Z" fill="white"/>
<path fill-rule="evenodd" clip-rule="evenodd" d="M129.675 28.5052L124.92 19.4679L119.131 30.6232C119.915 30.2167 121.123 29.7603 122.755 29.2583C124.387 28.7572 126.474 28.5052 129.016 28.5052H129.675ZM120.825 11.6543H126.05L139.229 36.6013H133.911L131.982 32.9303H129.063C127.556 32.9303 126.066 33.0563 124.591 33.3063C123.116 33.5584 121.775 33.8633 120.567 34.2241C119.359 34.5849 118.338 34.9619 117.507 35.3532C116.676 35.7465 116.165 36.0677 115.977 36.3177L115.836 36.6013H110.753L122.426 14.7145L120.825 11.6543Z" fill="white"/>
<path fill-rule="evenodd" clip-rule="evenodd" d="M142.336 36.6006V12.2197H147.372V31.7059H160.316V36.6006H142.336Z" fill="white"/>
</svg>
