<svg width="58" height="58" viewBox="0 0 58 58" fill="none" xmlns="http://www.w3.org/2000/svg">
<g filter="url(#filter0_d)">
<rect x="4" y="2" width="50" height="50" rx="14" fill="url(#paint0_linear)"/>
</g>
<path fill-rule="evenodd" clip-rule="evenodd" d="M30.9844 36.4145C31.2334 36.7799 31.3784 37.2179 31.3784 37.6889C31.3784 38.9653 30.3135 40 29 40C27.6865 40 26.6216 38.9653 26.6216 37.6889C26.6216 37.2179 26.7666 36.7799 27.0156 36.4145L21.7361 32.3644C21.3511 32.625 20.8831 32.7778 20.3784 32.7778C19.0648 32.7778 18 31.7431 18 30.4667C18 29.3384 18.832 28.3989 19.9324 28.1961V25.8039C18.832 25.6011 18 24.6616 18 23.5333C18 22.2569 19.0648 21.2222 20.3784 21.2222C20.8831 21.2222 21.3511 21.375 21.7361 21.6356L27.0156 17.5855C26.7666 17.2201 26.6216 16.7821 26.6216 16.3111C26.6216 15.0347 27.6865 14 29 14C30.3135 14 31.3784 15.0347 31.3784 16.3111C31.3784 16.7821 31.2334 17.2201 30.9844 17.5855L36.2639 21.6356C36.6489 21.375 37.1169 21.2222 37.6216 21.2222C38.9352 21.2222 40 22.2569 40 23.5333C40 24.6616 39.168 25.6011 38.0676 25.8039V28.1961C39.168 28.3989 40 29.3384 40 30.4667C40 31.7431 38.9352 32.7778 37.6216 32.7778C37.1169 32.7778 36.6489 32.625 36.2639 32.3644L30.9844 36.4145ZM28.5541 32.7372V35.4183C28.2202 35.4799 27.911 35.6092 27.6423 35.7911L22.3628 31.741C22.6118 31.3757 22.7568 30.9376 22.7568 30.4667C22.7568 29.9991 22.6138 29.5639 22.3681 29.2001L24.6892 27.5383L27.0102 29.2001C26.7645 29.5639 26.6216 29.9991 26.6216 30.4667C26.6216 31.5949 27.4537 32.5344 28.5541 32.7372ZM30.3577 35.7911C30.089 35.6092 29.7798 35.4799 29.4459 35.4183V32.7372C30.5463 32.5344 31.3784 31.5949 31.3784 30.4667C31.3784 29.9991 31.2355 29.5639 30.9898 29.2001L33.3108 27.5383L35.6319 29.2001C35.3862 29.5639 35.2432 29.9991 35.2432 30.4667C35.2432 30.9376 35.3882 31.3757 35.6372 31.741L30.3577 35.7911ZM23.9374 27L21.7413 28.5724C21.4714 28.3887 21.1604 28.2581 20.8243 28.1961V25.8039C21.1604 25.7419 21.4714 25.6113 21.7413 25.4276L23.9374 27ZM22.3681 24.7999L24.6892 26.4617L27.0102 24.7999C26.7645 24.4361 26.6216 24.0009 26.6216 23.5333C26.6216 22.4051 27.4537 21.4656 28.5541 21.2628V18.5817C28.2202 18.5201 27.911 18.3908 27.6423 18.2089L22.3628 22.259C22.6118 22.6243 22.7568 23.0624 22.7568 23.5333C22.7568 24.0009 22.6138 24.4361 22.3681 24.7999ZM37.1757 28.1961C36.8396 28.2581 36.5286 28.3887 36.2587 28.5724L34.0626 27L36.2587 25.4276C36.5286 25.6113 36.8396 25.7419 37.1757 25.8039V28.1961ZM35.6372 22.259L30.3577 18.2089C30.089 18.3908 29.7798 18.5201 29.4459 18.5817V21.2628C30.5463 21.4656 31.3784 22.4051 31.3784 23.5333C31.3784 24.0009 31.2355 24.4361 30.9898 24.7999L33.3108 26.4617L35.6319 24.7999C35.3862 24.4361 35.2432 24.0009 35.2432 23.5333C35.2432 23.0624 35.3882 22.6243 35.6372 22.259ZM29 28.1556C28.493 28.1556 28.023 28.3097 27.6371 28.5724L25.441 27L27.6371 25.4276C28.023 25.6903 28.493 25.8444 29 25.8444C29.507 25.8444 29.977 25.6903 30.3629 25.4276L32.559 27L30.3629 28.5724C29.977 28.3097 29.507 28.1556 29 28.1556ZM28.9982 24.9778C29.8192 24.9778 30.4847 24.3311 30.4847 23.5333C30.4847 22.7356 29.8192 22.0889 28.9982 22.0889C28.1772 22.0889 27.5117 22.7356 27.5117 23.5333C27.5117 24.3311 28.1772 24.9778 28.9982 24.9778ZM30.4847 30.4669C30.4847 31.2647 29.8192 31.9114 28.9982 31.9114C28.1772 31.9114 27.5117 31.2647 27.5117 30.4669C27.5117 29.6692 28.1772 29.0225 28.9982 29.0225C29.8192 29.0225 30.4847 29.6692 30.4847 30.4669ZM37.6232 24.9778C38.4442 24.9778 39.1097 24.3311 39.1097 23.5333C39.1097 22.7356 38.4442 22.0889 37.6232 22.0889C36.8022 22.0889 36.1367 22.7356 36.1367 23.5333C36.1367 24.3311 36.8022 24.9778 37.6232 24.9778ZM39.1097 30.4669C39.1097 31.2647 38.4442 31.9114 37.6232 31.9114C36.8022 31.9114 36.1367 31.2647 36.1367 30.4669C36.1367 29.6692 36.8022 29.0225 37.6232 29.0225C38.4442 29.0225 39.1097 29.6692 39.1097 30.4669ZM20.3771 24.9778C21.1981 24.9778 21.8636 24.3311 21.8636 23.5333C21.8636 22.7356 21.1981 22.0889 20.3771 22.0889C19.5561 22.0889 18.8906 22.7356 18.8906 23.5333C18.8906 24.3311 19.5561 24.9778 20.3771 24.9778ZM21.8636 30.4669C21.8636 31.2647 21.1981 31.9114 20.3771 31.9114C19.5561 31.9114 18.8906 31.2647 18.8906 30.4669C18.8906 29.6692 19.5561 29.0225 20.3771 29.0225C21.1981 29.0225 21.8636 29.6692 21.8636 30.4669ZM28.9982 39.133C29.8192 39.133 30.4847 38.4863 30.4847 37.6886C30.4847 36.8908 29.8192 36.2441 28.9982 36.2441C28.1772 36.2441 27.5117 36.8908 27.5117 37.6886C27.5117 38.4863 28.1772 39.133 28.9982 39.133ZM30.4847 16.3107C30.4847 17.1084 29.8192 17.7551 28.9982 17.7551C28.1772 17.7551 27.5117 17.1084 27.5117 16.3107C27.5117 15.5129 28.1772 14.8662 28.9982 14.8662C29.8192 14.8662 30.4847 15.5129 30.4847 16.3107Z" fill="white"/>
<defs>
<filter id="filter0_d" x="0" y="0" width="58" height="58" filterUnits="userSpaceOnUse" color-interpolation-filters="sRGB">
<feFlood flood-opacity="0" result="BackgroundImageFix"/>
<feColorMatrix in="SourceAlpha" type="matrix" values="0 0 0 0 0 0 0 0 0 0 0 0 0 0 0 0 0 0 127 0"/>
<feOffset dy="2"/>
<feGaussianBlur stdDeviation="2"/>
<feColorMatrix type="matrix" values="0 0 0 0 0.501961 0 0 0 0 0.12549 0 0 0 0 0 0 0 0 0.15 0"/>
<feBlend mode="normal" in2="BackgroundImageFix" result="effect1_dropShadow"/>
<feBlend mode="normal" in="SourceGraphic" in2="effect1_dropShadow" result="shape"/>
</filter>
<linearGradient id="paint0_linear" x1="-21" y1="27" x2="29" y2="77" gradientUnits="userSpaceOnUse">
<stop stop-color="#F2C314"/>
<stop offset="1" stop-color="#FC3832"/>
</linearGradient>
</defs>
</svg>
