<svg width="12" height="7" viewBox="0 0 12 7" fill="none" xmlns="http://www.w3.org/2000/svg">
<path d="M5.62771 4.93118L5.97477 5.28035L6.32928 4.93874L9.62928 1.75874L9.64215 1.74634L9.65411 1.73304C9.7001 1.6819 9.75616 1.64079 9.81876 1.6123C9.88137 1.58381 9.94918 1.56854 10.018 1.56745C10.0867 1.56636 10.155 1.57947 10.2185 1.60597C10.2819 1.63246 10.3393 1.67177 10.3869 1.72144C10.4345 1.7711 10.4713 1.83005 10.4951 1.89459C10.5188 1.95914 10.529 2.02789 10.525 2.09657C10.521 2.16523 10.5029 2.23233 10.4717 2.29367C10.4406 2.35501 10.3972 2.40927 10.3441 2.45304L10.3291 2.46541L10.3151 2.47891L6.31529 6.33875C6.31528 6.33877 6.31526 6.33878 6.31525 6.3388C6.31521 6.33883 6.31517 6.33887 6.31513 6.33891C6.22421 6.42649 6.10354 6.47642 5.97736 6.47872C5.91226 6.47882 5.84777 6.46621 5.78749 6.44159C5.72682 6.41682 5.67162 6.38036 5.62503 6.33429C5.62483 6.3341 5.62464 6.3339 5.62444 6.33371L1.62589 2.33515C1.57908 2.28834 1.54195 2.23277 1.51661 2.17161C1.49128 2.11045 1.47824 2.0449 1.47824 1.9787C1.47824 1.9125 1.49128 1.84695 1.51661 1.78579C1.54195 1.72463 1.57908 1.66906 1.62589 1.62225C1.6727 1.57544 1.72827 1.53831 1.78943 1.51298C1.85058 1.48765 1.91613 1.47461 1.98233 1.47461C2.04853 1.47461 2.11408 1.48765 2.17524 1.51298C2.23621 1.53823 2.29162 1.57521 2.33834 1.62181C2.33849 1.62196 2.33863 1.62211 2.33878 1.62225L5.62771 4.93118Z" fill="#72727E" stroke="#72727E"/>
</svg>
