<svg width="60" height="60" viewBox="0 0 60 60" fill="none" xmlns="http://www.w3.org/2000/svg">
<g filter="url(#filter0_b)">
<circle cx="30" cy="30" r="30" fill="url(#paint0_linear)" fill-opacity="0.7"/>
</g>
<path d="M32.9766 30.75C32.9766 32.3939 31.6439 33.7266 30 33.7266C28.3561 33.7266 27.0234 32.3939 27.0234 30.75C27.0234 29.1061 28.3561 27.7734 30 27.7734C31.6439 27.7734 32.9766 29.1061 32.9766 30.75Z" fill="#72727E" stroke="#72727E" stroke-width="0.046875"/>
<path d="M38.25 24.75H35.4844C35.3438 24.75 35.1694 24.6591 35.0334 24.5156L33.8175 22.5966C33.7983 22.5661 33.7768 22.5371 33.7533 22.5098C33.3333 22.02 32.7656 21.75 32.1562 21.75H27.8438C27.2344 21.75 26.6667 22.02 26.2467 22.5098C26.2232 22.5371 26.2017 22.5661 26.1825 22.5966L24.9666 24.5184C24.8625 24.6319 24.7162 24.7528 24.5625 24.7528V24.3778C24.5625 24.1789 24.4835 23.9881 24.3428 23.8475C24.2022 23.7068 24.0114 23.6278 23.8125 23.6278H22.6875C22.4886 23.6278 22.2978 23.7068 22.1572 23.8475C22.0165 23.9881 21.9375 24.1789 21.9375 24.3778V24.7528H21.75C21.1535 24.7534 20.5815 24.9907 20.1597 25.4125C19.7379 25.8343 19.5006 26.4063 19.5 27.0028V36C19.5006 36.5965 19.7379 37.1685 20.1597 37.5903C20.5815 38.0121 21.1535 38.2494 21.75 38.25H38.25C38.8465 38.2494 39.4185 38.0121 39.8403 37.5903C40.2621 37.1685 40.4994 36.5965 40.5 36V27C40.4994 26.4035 40.2621 25.8315 39.8403 25.4097C39.4185 24.9879 38.8465 24.7506 38.25 24.75ZM30 35.25C29.11 35.25 28.24 34.9861 27.4999 34.4916C26.7599 33.9971 26.1831 33.2943 25.8425 32.4721C25.5019 31.6498 25.4128 30.745 25.5865 29.8721C25.7601 28.9992 26.1887 28.1974 26.818 27.568C27.4474 26.9387 28.2492 26.5101 29.1221 26.3365C29.995 26.1628 30.8998 26.2519 31.7221 26.5925C32.5443 26.9331 33.2471 27.5099 33.7416 28.2499C34.2361 28.99 34.5 29.86 34.5 30.75C34.4986 31.9431 34.0241 33.0869 33.1805 33.9305C32.3369 34.7741 31.1931 35.2486 30 35.25Z" fill="#72727E"/>
<defs>
<filter id="filter0_b" x="-80" y="-80" width="220" height="220" filterUnits="userSpaceOnUse" color-interpolation-filters="sRGB">
<feFlood flood-opacity="0" result="BackgroundImageFix"/>
<feGaussianBlur in="BackgroundImage" stdDeviation="40"/>
<feComposite in2="SourceAlpha" operator="in" result="effect1_backgroundBlur"/>
<feBlend mode="normal" in="SourceGraphic" in2="effect1_backgroundBlur" result="shape"/>
</filter>
<linearGradient id="paint0_linear" x1="0" y1="0" x2="0" y2="60" gradientUnits="userSpaceOnUse">
<stop stop-color="#F8F8F8"/>
<stop offset="0.480847" stop-color="#F9F9F9"/>
<stop offset="1" stop-color="#F8F8F8"/>
</linearGradient>
</defs>
</svg>
