<svg width="185" height="47" viewBox="0 0 185 47" fill="none" xmlns="http://www.w3.org/2000/svg">
<g clip-path="url(#clip0)">
<path d="M63.117 29.8587C64.8093 29.8587 66.5241 29.8587 68.2164 29.8587C68.1713 30.31 68.1713 30.7387 68.1938 31.19C68.2164 31.6413 68.3292 32.0474 68.5097 32.4536C68.8707 33.1305 69.4348 33.5592 70.1794 33.7622C70.924 33.9653 71.6235 33.8525 72.2553 33.4689C72.8645 33.0176 73.2255 32.4084 73.3157 31.6638C73.406 30.8967 73.2255 30.2198 72.7517 29.6331C72.3455 29.2044 71.8491 28.8885 71.3076 28.6629C71.0368 28.5275 70.7661 28.4147 70.4953 28.2793L63.997 26.9706L65.2606 25.6845C64.9221 25.4137 64.6062 25.0978 64.3129 24.7594C63.3878 23.5409 62.9591 22.2323 63.0268 20.7882C63.0945 19.3667 63.5232 18.0129 64.3355 16.7719C65.1477 15.5309 66.1857 14.5832 67.4718 13.9515C68.6677 13.3874 69.9312 13.1617 71.2625 13.2294C72.5937 13.2971 73.8121 13.7033 74.9403 14.4027C76.0459 15.1248 76.9259 16.0724 77.5803 17.2232C78.212 18.3965 78.5505 19.6375 78.5505 20.9462C76.8357 20.9462 75.0983 20.9462 73.3834 20.9462C73.3609 20.4046 73.2029 19.9082 72.887 19.457C72.5712 19.0057 72.1424 18.6898 71.6235 18.5093C71.1045 18.3288 70.563 18.3288 70.044 18.5093C69.5251 18.6672 69.0738 18.9606 68.7353 19.3893C68.2841 20.021 68.1487 20.6979 68.2615 21.4651C68.3292 21.8036 68.442 22.1195 68.6451 22.4128C68.8482 22.7061 69.0964 22.9769 69.3671 23.1799C69.6605 23.383 69.9538 23.5861 70.2922 23.744C71.0594 24.1276 71.8491 24.4661 72.6614 24.7368C73.2029 24.9399 73.7445 25.143 74.2634 25.3686C74.4665 25.4589 74.647 25.5491 74.8501 25.6394L79.1597 26.948L77.8736 28.2567C78.3925 29.227 78.6407 30.2874 78.6182 31.4156C78.5731 32.8823 78.1669 34.2135 77.3772 35.4545C76.5875 36.6955 75.5495 37.6432 74.2409 38.2975C72.9322 38.9067 71.5332 39.1549 70.0892 38.997C68.6225 38.8616 67.3138 38.3426 66.1405 37.4852C64.9898 36.5827 64.155 35.4545 63.6134 34.1007C63.0268 32.7017 62.8688 31.3028 63.117 29.8587Z" fill="white"/>
<path d="M70.7641 13.523C70.9221 13.523 71.08 13.523 71.238 13.5456C72.5015 13.6133 73.6974 13.9969 74.7579 14.6512C75.8184 15.3281 76.6758 16.2532 77.285 17.3588C77.8491 18.3742 78.165 19.4572 78.2101 20.608H73.6974C73.6297 20.1116 73.4492 19.6603 73.1559 19.2542C72.7948 18.7578 72.321 18.3967 71.7344 18.1937C71.441 18.1034 71.1251 18.0583 70.8318 18.0583C70.5385 18.0583 70.2452 18.1034 69.9518 18.1937C69.3652 18.3742 68.8688 18.7126 68.4852 19.1865C67.9888 19.8859 67.8083 20.6531 67.9662 21.5105C68.0339 21.8941 68.1693 22.2551 68.3949 22.571C68.6206 22.9095 68.8913 23.1802 69.2072 23.4284C69.5006 23.6541 69.839 23.8571 70.1775 24.0151C70.9446 24.3986 71.7569 24.7371 72.5692 25.0304C72.8174 25.1207 73.043 25.2109 73.2912 25.3012H72.6595L74.7579 25.933L76.5629 26.4745L77.5783 28.3698C78.0747 29.2949 78.3003 30.3103 78.2778 31.3708C78.2326 32.7697 77.8265 34.0558 77.0819 35.2517C76.3373 36.425 75.322 37.3501 74.081 37.9593C73.0656 38.4332 71.9825 38.6814 70.8769 38.6814C70.6062 38.6814 70.358 38.6588 70.0872 38.6362C68.6883 38.5009 67.4247 38.0045 66.3191 37.1922C65.2135 36.3348 64.4012 35.2517 63.9048 33.943C63.431 32.7246 63.273 31.461 63.4535 30.1749C64.9653 30.1749 66.4545 30.1749 67.9211 30.1749C67.8986 30.5134 67.8986 30.8518 67.9211 31.1903C67.9437 31.6641 68.0565 32.1379 68.2596 32.5667C68.6657 33.3112 69.2975 33.8076 70.1323 34.0333C70.4031 34.101 70.6739 34.1461 70.9446 34.1461C71.4862 34.1461 71.9825 33.9882 72.4789 33.6948C73.1559 33.1984 73.562 32.499 73.6748 31.6641C73.7876 30.8067 73.562 30.0395 73.043 29.3852V29.3626V29.3401C72.6143 28.8888 72.0954 28.5503 71.5087 28.2796C71.238 28.1442 70.9446 28.0314 70.6739 27.896L70.6513 27.8734H70.6062L64.6945 26.7001L65.5294 25.8427L65.7776 25.572L65.4843 25.3463C65.1458 25.0981 64.8525 24.8048 64.6043 24.4663C63.7243 23.3156 63.3182 22.0746 63.3858 20.7208C63.4535 19.3444 63.8822 18.0583 64.6494 16.8624C65.4166 15.6666 66.4319 14.764 67.6504 14.1548C68.6206 13.7487 69.6811 13.523 70.7641 13.523ZM76.6081 26.5196L78.526 27.1063L77.8491 27.7832L76.6081 26.5196ZM70.7641 13.1846C69.6134 13.1846 68.5078 13.4328 67.4698 13.9066C66.1837 14.5384 65.1458 15.4861 64.3335 16.727C63.5212 17.968 63.0925 19.2993 63.0248 20.7434C62.9571 22.1874 63.3858 23.4961 64.311 24.7145C64.6043 25.053 64.9202 25.3689 65.2586 25.6396L63.9951 26.9258L70.4934 28.2345C70.7641 28.3473 71.0349 28.4827 71.3056 28.618C71.8472 28.8437 72.3436 29.1821 72.7497 29.5883C73.2235 30.1749 73.4041 30.8518 73.3138 31.619C73.2235 32.3861 72.8625 32.9954 72.2533 33.4241C71.8246 33.6948 71.3733 33.8302 70.8995 33.8302C70.6513 33.8302 70.4257 33.8076 70.1775 33.74C69.4329 33.5369 68.8913 33.1082 68.5078 32.4313C68.3273 32.0251 68.2144 31.619 68.1919 31.1677C68.1693 30.7164 68.1693 30.2877 68.2144 29.8365C66.5222 29.8365 64.8073 29.8365 63.1151 29.8365C62.8669 31.2805 63.0248 32.6795 63.5438 34.0333C64.0853 35.3871 64.9202 36.5153 66.0709 37.4178C67.2442 38.2752 68.5529 38.7942 70.0195 38.9296C70.2903 38.9521 70.5836 38.9747 70.8544 38.9747C72.0051 38.9747 73.1333 38.7265 74.1938 38.2301C75.5025 37.5758 76.5404 36.6281 77.3301 35.3871C78.1198 34.1461 78.526 32.8148 78.5711 31.3482C78.6162 30.22 78.368 29.1821 77.8265 28.1893L79.1126 26.8806L74.803 25.572C74.5999 25.4817 74.4194 25.3914 74.2163 25.3012C73.6974 25.0756 73.1559 24.8499 72.6143 24.6694C71.802 24.3761 71.0123 24.0376 70.2452 23.6766C69.9067 23.5187 69.6134 23.3156 69.3201 23.1125C69.0267 22.9095 68.7785 22.6387 68.598 22.3454C68.395 22.052 68.2821 21.7362 68.2144 21.3977C68.0791 20.6305 68.237 19.9536 68.6883 19.3219C69.0267 18.8931 69.4554 18.5998 69.997 18.4419C70.2452 18.3516 70.5159 18.3291 70.7641 18.3291C71.0349 18.3291 71.3056 18.3742 71.5764 18.4644C72.0954 18.645 72.5241 18.9608 72.84 19.4121C73.1559 19.8634 73.3364 20.3598 73.3364 20.9013C75.0512 20.9013 76.7886 20.9013 78.5034 20.9013C78.4808 19.5701 78.165 18.3291 77.5332 17.1783C76.9014 16.005 76.0214 15.0799 74.8932 14.3579C73.7651 13.6584 72.5241 13.2748 71.2154 13.1846C71.1026 13.2071 70.9446 13.1846 70.7641 13.1846Z" fill="white"/>
<path d="M84.3026 26.1592L85.0924 25.3694L78.0977 13.7041H83.0842L88.0707 22.0075L93.0573 13.7041H98.0438L91.004 25.392L91.7712 26.1592L90.5527 27.4002V38.6142H85.5662V27.4227H85.5436L84.3026 26.1592Z" fill="white"/>
<path d="M97.4337 14.02L90.7324 25.2115L90.597 25.4371L90.7775 25.6177L91.319 26.1592L90.3262 27.1745L90.236 27.2648V27.4002V38.2758H85.9038V27.4002V26.8812L85.633 27.0166L84.7756 26.1592L85.3397 25.5951L85.5202 25.4146L85.3848 25.1889L78.6609 14.02H82.8802L87.7765 22.1654L88.0473 22.6393L88.3181 22.1654L93.2143 14.02H97.4337ZM98.0204 13.7041H93.0338L88.0473 22.0075L83.0608 13.7041H78.0742L85.0689 25.3694L84.2792 26.1592L85.5202 27.4227H85.5427V38.6142H90.5519V27.4002L91.7703 26.1592L91.0031 25.392L98.0204 13.7041Z" fill="white"/>
<path d="M116.226 38.6142V26.1592L112.571 38.6142H108.916L105.261 26.1592V38.6142H100.274V28.1673L99.0781 26.9489L100.274 25.7305V13.7041H101.605H105.261L110.743 32.3867L116.226 13.7041H119.882H121.213V25.7756L122.386 26.9489L121.213 28.1222V38.6142H116.226Z" fill="white"/>
<path d="M120.875 14.02V25.7756V25.911L120.965 26.0012L121.89 26.9489L120.965 27.874L120.875 27.9643V28.0996V38.2758H116.542V26.1366V23.8577L115.911 26.0464L112.323 38.2758H109.164L105.576 26.0464L104.945 23.8577V26.1366V38.2758H100.612V28.1673V28.0319L100.522 27.9417L99.552 26.9489L100.522 25.9561L100.612 25.8658V25.7305V14.02H101.605H105.012L110.428 32.4544L110.743 33.5149L111.059 32.4544L116.452 14.02H119.882H120.875ZM121.19 13.7041H119.882H116.226L110.743 32.3867L105.261 13.7041H101.605H100.274V25.7305L99.0781 26.9489L100.274 28.1673V38.6142H105.261V26.1592L108.916 38.6142H112.571L116.226 26.1592V38.6142H121.213V28.1222L122.386 26.9489L121.213 25.7756L121.19 13.7041Z" fill="white"/>
<path d="M124.667 38.6142V28.2125L123.426 26.9489L124.667 25.6853V13.7041H132.835C134.076 13.7041 135.227 13.9974 136.242 14.6066C137.257 15.2159 138.092 16.0281 138.701 17.0661C139.311 18.104 139.626 19.2322 139.626 20.4957V20.9019C139.626 21.7142 139.491 22.4813 139.243 23.2034C138.995 23.9254 138.634 24.6023 138.182 25.2115C138.949 25.9335 139.536 26.7684 139.987 27.7386C140.416 28.7088 140.642 29.7468 140.642 30.875V32.0031C140.642 33.2216 140.348 34.3497 139.739 35.3425C139.13 36.3353 138.34 37.1476 137.347 37.7343C136.355 38.3209 135.249 38.6142 134.031 38.6142H124.667ZM129.653 18.6906V23.1131H132.406C133.015 23.1131 133.534 22.8875 133.986 22.4587C134.414 22.03 134.64 21.5111 134.64 20.9019V20.6762C134.64 20.1347 134.437 19.6609 134.053 19.2773C133.67 18.8937 133.196 18.6906 132.654 18.6906H129.653ZM135.317 31.4616V30.875C135.317 30.1078 135.046 29.4534 134.504 28.9119C133.963 28.3704 133.309 28.0996 132.541 28.0996H129.992V33.6277H133.128C133.715 33.6277 134.234 33.4246 134.662 32.9959C135.091 32.5672 135.317 32.0483 135.317 31.4616Z" fill="white"/>
<path d="M132.835 14.02C134.031 14.02 135.114 14.3133 136.084 14.8774C137.054 15.4641 137.844 16.2312 138.431 17.224C139.017 18.1942 139.31 19.2999 139.31 20.4732V20.8793C139.31 21.6465 139.198 22.3911 138.949 23.068C138.701 23.7674 138.363 24.3992 137.934 24.9859L137.754 25.2115L137.979 25.4146C138.701 26.0915 139.288 26.9038 139.694 27.8289C140.1 28.754 140.326 29.7693 140.326 30.8298V31.958C140.326 33.1087 140.033 34.1918 139.468 35.1395C138.904 36.0871 138.137 36.8543 137.19 37.4184C136.242 37.9825 135.181 38.2532 134.031 38.2532H125.005V28.1899V28.0545L124.915 27.9643L123.9 26.9263L124.915 25.8884L125.005 25.7982V25.6628V14.02H132.835ZM129.337 23.429H129.653H132.406C133.106 23.429 133.715 23.1808 134.211 22.6844C134.708 22.188 134.956 21.5788 134.956 20.8793V20.6537C134.956 20.0219 134.73 19.4804 134.279 19.0291C133.828 18.5778 133.286 18.3522 132.654 18.3522H129.653H129.337V18.6681V23.0905V23.429ZM129.653 33.9436H129.969H133.106C133.782 33.9436 134.392 33.6954 134.865 33.199C135.362 32.7026 135.61 32.1159 135.61 31.439V30.8524C135.61 29.995 135.294 29.2504 134.708 28.6637C134.098 28.0545 133.376 27.7612 132.519 27.7612H129.969H129.653V28.0771V33.6051V33.9436ZM132.835 13.7041H124.667V25.6853L123.426 26.9489L124.667 28.2125V38.6142H134.008C135.226 38.6142 136.332 38.3209 137.325 37.7343C138.318 37.1476 139.13 36.3353 139.717 35.3425C140.303 34.3497 140.619 33.2216 140.619 32.0031V30.875C140.619 29.7693 140.394 28.7088 139.965 27.7386C139.536 26.7684 138.927 25.9335 138.16 25.2115C138.611 24.6023 138.972 23.9479 139.22 23.2034C139.468 22.4813 139.604 21.7142 139.604 20.9019V20.4957C139.604 19.2547 139.288 18.104 138.679 17.0661C138.07 16.0281 137.257 15.2159 136.219 14.6066C135.227 13.9974 134.098 13.7041 132.835 13.7041ZM129.653 23.1131V18.6906H132.654C133.196 18.6906 133.67 18.8937 134.053 19.2773C134.437 19.6609 134.64 20.1347 134.64 20.6762V20.9019C134.64 21.5111 134.414 22.03 133.986 22.4587C133.557 22.8875 133.038 23.1131 132.406 23.1131H129.653ZM129.992 33.6277V28.0996H132.541C133.309 28.0996 133.963 28.3704 134.504 28.9119C135.046 29.4534 135.317 30.1078 135.317 30.875V31.4616C135.317 32.0483 135.114 32.5672 134.685 32.9959C134.256 33.4246 133.737 33.6277 133.151 33.6277H129.992Z" fill="white"/>
<path d="M142.876 28.1448L141.703 26.9489L142.876 25.753V13.7041H147.863V25.7982L149.014 26.9715L147.863 28.1448V38.6142H142.876V28.1448Z" fill="white"/>
<path d="M147.547 14.02V25.7756V25.911L147.637 26.0012L148.562 26.9263L147.637 27.8514L147.547 27.9417V28.0771V38.2532H143.215V28.1222V28.0094L143.125 27.9191L142.177 26.9489L143.125 25.9787L143.215 25.8884V25.753V14.02H147.547ZM147.863 13.7041H142.876V25.753L141.703 26.9489L142.876 28.1448V38.6142H147.863V28.1222L149.014 26.9489L147.863 25.7756V13.7041Z" fill="white"/>
<path d="M151.315 28.1893L150.074 26.9483L151.315 25.7073V21.6008V20.969C151.315 20.247 151.405 19.5249 151.609 18.848C151.812 18.1711 152.082 17.5393 152.443 16.9527C152.759 16.4112 153.165 15.9148 153.594 15.4635C154.045 15.0122 154.519 14.6286 155.061 14.3127C155.647 13.9517 156.279 13.681 156.956 13.4779C157.633 13.2748 158.355 13.1846 159.077 13.1846C159.799 13.1846 160.521 13.2748 161.198 13.4779C161.875 13.681 162.507 13.9517 163.093 14.3127C163.635 14.6286 164.131 15.0122 164.583 15.4635C165.034 15.9148 165.417 16.4112 165.733 16.9527C166.094 17.5393 166.365 18.1711 166.568 18.848C166.771 19.5249 166.861 20.2244 166.861 20.969V21.6008V25.7073L168.102 26.9709L166.861 28.2345V30.5585V31.3708C166.861 32.7923 166.5 34.101 165.801 35.2743C165.102 36.4476 164.154 37.3952 162.981 38.0947C161.807 38.7942 160.499 39.1552 159.077 39.1552C157.633 39.1552 156.324 38.7942 155.151 38.0947C153.978 37.3952 153.03 36.4476 152.331 35.2743C151.631 34.101 151.293 32.7923 151.293 31.3708V30.5585L151.315 28.1893ZM156.505 30.5134V31.3257C156.505 32.0477 156.753 32.6569 157.272 33.1533C157.791 33.6497 158.378 33.9205 159.1 33.9205C159.822 33.9205 160.431 33.6723 160.927 33.1533C161.446 32.6343 161.694 32.0251 161.694 31.3257V30.5134V21.5782V20.9464C161.694 20.7659 161.672 20.5854 161.649 20.4275C161.536 19.9085 161.288 19.4798 160.927 19.1188C160.566 18.7578 160.138 18.5096 159.619 18.3967C159.438 18.3516 159.28 18.3516 159.1 18.3516C158.919 18.3516 158.739 18.3742 158.581 18.3967C158.062 18.5096 157.633 18.7578 157.272 19.1188C156.911 19.4798 156.663 19.9085 156.55 20.4275C156.527 20.608 156.505 20.7659 156.505 20.9464V21.5782V30.5134Z" fill="white"/>
<path d="M159.1 13.523C159.8 13.523 160.477 13.6133 161.131 13.7938C161.786 13.9743 162.395 14.2451 162.959 14.6061C163.478 14.922 163.952 15.283 164.38 15.7117C164.809 16.1404 165.17 16.6142 165.486 17.1332C165.824 17.6973 166.095 18.3065 166.298 18.9608C166.479 19.5926 166.569 20.2921 166.569 20.9916V21.6233V25.7299V25.8653L166.659 25.9555L167.675 26.9935L166.659 28.0314L166.569 28.1216V28.257V30.5811V31.3933C166.569 32.7472 166.231 34.0107 165.554 35.1389C164.877 36.2671 163.974 37.1696 162.846 37.8465C161.718 38.5234 160.477 38.8619 159.1 38.8619C157.724 38.8619 156.461 38.5234 155.355 37.8465C154.227 37.1696 153.324 36.2671 152.647 35.1389C151.993 34.0107 151.655 32.7697 151.655 31.3933V30.5811V28.257V28.1216L151.564 28.0314L150.549 27.016L151.564 26.0007L151.655 25.9104V25.775V21.6685V21.0367C151.655 20.3372 151.745 19.6603 151.925 19.006C152.106 18.3516 152.377 17.7424 152.715 17.1783C153.031 16.6594 153.392 16.1855 153.821 15.7568C154.249 15.3281 154.723 14.9671 155.22 14.6512C155.784 14.3127 156.393 14.042 157.047 13.8615C157.702 13.6133 158.401 13.523 159.1 13.523ZM159.1 34.2589C159.89 34.2589 160.59 33.9656 161.154 33.4015C161.718 32.8374 162.011 32.1379 162.011 31.3482V30.5359V21.6008V20.969C162.011 20.7659 161.989 20.5629 161.944 20.3823C161.808 19.8183 161.537 19.3219 161.154 18.9157C160.748 18.5096 160.251 18.2388 159.687 18.1034C159.484 18.0583 159.304 18.0357 159.1 18.0357C158.897 18.0357 158.694 18.0583 158.514 18.1034C157.927 18.2388 157.431 18.5096 157.047 18.8931C156.641 19.2993 156.37 19.7957 156.235 20.3598C156.212 20.5403 156.19 20.7434 156.19 20.9464V21.5782V30.5134V31.3257C156.19 32.1154 156.483 32.8148 157.047 33.3789C157.611 33.9656 158.288 34.2589 159.1 34.2589ZM159.1 13.1846C158.356 13.1846 157.656 13.2748 156.98 13.4779C156.303 13.681 155.671 13.9517 155.084 14.3127C154.543 14.6286 154.046 15.0348 153.618 15.4635C153.166 15.9148 152.783 16.4112 152.467 16.9527C152.106 17.5393 151.835 18.1711 151.632 18.848C151.429 19.5249 151.339 20.2244 151.339 20.969V21.6008V25.7073L150.098 26.9483L151.339 28.1893V30.5134V31.3257C151.339 32.7472 151.677 34.0558 152.377 35.2291C153.076 36.4024 154.001 37.3501 155.197 38.0496C156.37 38.7491 157.679 39.1101 159.123 39.1101C160.545 39.1101 161.853 38.7491 163.027 38.0496C164.2 37.3501 165.148 36.4024 165.847 35.2291C166.546 34.0558 166.907 32.7472 166.907 31.3257V30.5134V28.1893L168.148 26.9258L166.907 25.6622V21.5556V20.9239C166.907 20.2018 166.817 19.4798 166.614 18.8029C166.411 18.126 166.14 17.4942 165.779 16.9076C165.463 16.366 165.08 15.8696 164.629 15.4184C164.177 14.9671 163.681 14.5835 163.139 14.2676C162.553 13.9066 161.921 13.6358 161.244 13.4328C160.545 13.2748 159.845 13.1846 159.1 13.1846ZM159.1 33.943C158.378 33.943 157.769 33.6948 157.273 33.1759C156.776 32.6569 156.506 32.0477 156.506 31.3482V30.5359V21.6008V20.969C156.506 20.7885 156.528 20.608 156.551 20.45C156.664 19.9311 156.912 19.5024 157.273 19.1413C157.634 18.7803 158.063 18.5321 158.582 18.4193C158.739 18.3742 158.92 18.3742 159.1 18.3742C159.281 18.3742 159.462 18.3967 159.619 18.4193C160.138 18.5321 160.567 18.7803 160.928 19.1413C161.289 19.5024 161.537 19.9311 161.65 20.45C161.695 20.6305 161.695 20.7885 161.695 20.969V21.6008V30.5359V31.3482C161.695 32.0702 161.447 32.6795 160.928 33.1759C160.432 33.6723 159.823 33.943 159.1 33.943Z" fill="white"/>
<path d="M173.993 25.6845V18.6672H168.465V13.6807H173.993H178.979H184.508V18.6672H178.979V25.707L180.198 26.948L178.979 28.189V38.6134H173.993V28.2116L172.752 26.948L173.993 25.6845Z" fill="white"/>
<path d="M184.192 14.019V18.3512H178.98H178.664V18.6671V25.7069V25.8423L178.755 25.9326L179.747 26.9479L178.755 27.9633L178.664 28.0535V28.1889V38.2748H174.332V28.2115V28.0761L174.242 27.9858L173.227 26.9479L174.242 25.91L174.332 25.8197V25.6844V18.6671V18.3512H174.016H168.804V14.019H174.016H179.003H184.192ZM184.531 13.7031H179.003H174.016H168.488V18.6897H174.016V25.7069L172.775 26.9705L174.016 28.234V38.6133H179.003V28.1889L180.221 26.9479L179.003 25.7069V18.6671H184.531V13.7031Z" fill="white"/>
<path d="M46.2408 23.4112C46.2408 23.4112 42.344 29.3534 41.1273 29.9881C41.1273 29.9881 41.815 23.4817 40.0341 18.0685L41.8679 22.7411C41.8679 22.7411 43.2785 14.7888 38.5882 1C38.5882 1 37.301 9.92214 35.1322 12.4789L34.1624 10.2924C34.1624 10.2924 31.782 22.0711 23.1243 29.3357C14.4667 22.0711 12.0863 10.2924 12.0863 10.2924L11.1165 12.4789C8.93003 9.92214 7.66047 1 7.66047 1C2.97018 14.7888 4.3808 22.7411 4.3808 22.7411L6.21459 18.0685C4.43369 23.4817 5.12137 29.9881 5.12137 29.9881C3.90472 29.3534 0.00789228 23.4112 0.00789228 23.4112C-0.256598 33.2502 6.21459 38.8927 6.21459 38.8927L6.53199 37.4644C13.4793 45.787 21.3258 46.6687 21.3258 46.6687C17.3761 44.5704 16.2652 41.5023 16.2652 41.5023C16.1594 42.3487 16.371 43.6006 16.371 43.6006C7.43125 36.6533 9.05346 24.0636 9.05346 24.0636C9.58244 33.3736 12.6858 37.9405 12.6858 37.9405C12.6153 32.1746 13.7966 31.3811 13.7966 31.3811L13.9553 33.6734L14.5901 32.2804L15.1367 33.5147L15.4012 32.5978L15.7186 33.7616C16.0007 31.9983 17.094 32.5096 17.6935 32.9504C18.2401 33.356 18.7867 33.7263 19.3509 34.0789C21.2024 35.1898 23.0891 36.1243 23.0891 36.1243C23.0891 36.1243 24.9758 35.1898 26.8272 34.0789C27.4091 33.7439 27.9557 33.356 28.4847 32.9504C29.0842 32.5096 30.1774 31.9806 30.4595 33.7616L30.7769 32.5978L31.0414 33.5147L31.588 32.2804L32.2228 33.6734L32.3815 31.3811C32.3815 31.3811 33.5629 32.1746 33.4924 37.9405C33.4924 37.9405 36.5957 33.3913 37.1247 24.0636C37.1247 24.0636 38.7645 36.6357 29.8071 43.6006C29.8071 43.6006 30.0187 42.331 29.9129 41.5023C29.9129 41.5023 28.8021 44.5528 24.8524 46.6687C24.8524 46.6687 32.6989 45.7694 39.6462 37.4644L39.9636 38.8927C40.0341 38.8927 46.5053 33.2502 46.2408 23.4112ZM11.9276 17.8216C15.3483 26.2853 20.885 29.036 20.885 29.036C6.79647 28.701 11.9276 17.8216 11.9276 17.8216ZM25.3813 29.036C25.3813 29.036 30.9004 26.2853 34.3387 17.8216C34.3387 17.8216 39.4699 28.701 25.3813 29.036Z" fill="#F2BD15"/>
<path d="M7.62711 1.54661C7.9445 3.50384 9.14353 10.3277 11.0479 12.567L11.1713 12.7257L11.2595 12.5318L12.0706 10.698C12.2821 11.6149 12.9522 14.1187 14.257 17.1339C15.7911 20.6605 18.5594 25.6505 23.0557 29.4239L23.1439 29.4944L23.232 29.4239C27.7284 25.6505 30.4967 20.6605 32.0308 17.1339C33.3532 14.1011 34.0056 11.6149 34.2172 10.698L35.0283 12.5318L35.1165 12.7257L35.2399 12.567C37.1442 10.3277 38.3433 3.50384 38.6607 1.54661C40.9353 8.40573 41.6758 13.7484 41.8698 17.0458C42.0285 19.673 41.9051 21.4363 41.8169 22.2474L40.1594 18.0332L39.9126 18.1213C41.6582 23.4464 41.0058 29.9176 41.0058 29.9881L40.9882 30.2174L41.1998 30.1116C42.2754 29.5473 45.2729 25.1215 46.1193 23.8343C46.1546 28.6833 44.5323 32.4567 43.1217 34.7666C41.8522 36.8825 40.5474 38.2226 40.1065 38.6458L39.842 37.4468L39.7892 37.1999L39.6305 37.3939C36.0686 41.661 32.26 43.9356 29.6856 45.0817C27.9047 45.8752 26.4588 46.2631 25.6477 46.4395C28.2221 44.8701 29.4388 42.9305 29.8972 42.0489C29.8972 42.7895 29.7738 43.6006 29.7561 43.6182L29.7032 43.9356L29.9677 43.7416C34.6228 40.1269 36.3684 34.9782 37.0208 31.293C37.7261 27.308 37.3206 24.1341 37.3206 24.0988L37.0737 24.1165C36.6329 31.7691 34.4288 36.2478 33.7059 37.5349C33.7235 32.1922 32.5774 31.3811 32.5421 31.3459L32.3658 31.2224L32.3481 31.434L32.2247 33.2149L31.8015 32.2804L31.6781 32.0159L31.5547 32.2804L31.1491 33.1973L30.9904 32.6154L30.867 32.1746L30.7436 32.6154L30.5496 33.3031C30.3204 32.6154 29.9148 32.4567 29.5975 32.4567C29.1919 32.4567 28.7687 32.7036 28.4866 32.9152C27.8342 33.3913 27.3228 33.7439 26.8291 34.026C25.1716 35.0135 23.4789 35.8598 23.1439 36.0362C22.8089 35.8775 21.1161 35.0135 19.4587 34.026C18.9649 33.7263 18.4536 33.3913 17.8012 32.9152C17.5191 32.7036 17.0959 32.4567 16.6903 32.4567C16.3729 32.4567 15.9674 32.6154 15.7382 33.3031L15.5442 32.6154L15.4208 32.1746L15.2973 32.6154L15.1386 33.1973L14.7331 32.2804L14.6097 32.0159L14.4862 32.2804L14.063 33.2149L13.9396 31.434L13.922 31.2224L13.7457 31.3459C13.6928 31.3811 12.5643 32.1922 12.5819 37.5349C11.8413 36.2478 9.63724 31.7867 9.21405 24.1165L8.9672 24.0988C8.9672 24.1341 8.56165 27.308 9.26696 31.293C9.91937 34.9782 11.665 40.1269 16.32 43.7416L16.5845 43.9356L16.5316 43.6182C16.5316 43.6006 16.3906 42.7895 16.3906 42.0489C16.849 42.9305 18.0657 44.8701 20.64 46.4395C19.8289 46.2631 18.3831 45.8928 16.6022 45.0994C14.0278 43.9532 10.2191 41.6786 6.63968 37.4115L6.48099 37.2176L6.42809 37.4644L6.1636 38.6634C5.72278 38.2403 4.41797 36.9002 3.14841 34.7842C1.75543 32.4567 0.115589 28.701 0.150855 23.852C1.01486 25.1392 4.01241 29.565 5.07037 30.1292L5.28196 30.235L5.26434 30.0058C5.26434 29.9353 4.61193 23.4641 6.35756 18.139L6.1107 18.0508L4.45323 22.265C4.36506 21.4716 4.24164 19.6907 4.40033 17.0634C4.62955 13.7308 5.35249 8.40573 7.62711 1.54661ZM24.819 29.177L25.4009 29.1594C29.9854 29.0536 33.0535 27.8193 34.4817 25.4918C36.5271 22.1945 34.4817 17.804 34.4641 17.7511L34.3406 17.4866L34.2349 17.7511C32.4716 22.1063 30.1441 24.9099 28.5042 26.4792C26.7233 28.1896 25.348 28.8949 25.3303 28.8949L24.819 29.177ZM21.4688 29.177L20.9574 28.9126C20.9045 28.8773 15.4384 26.0913 12.0706 17.7511L11.9648 17.4866L11.8413 17.7511C11.8237 17.7863 9.79594 22.1769 11.8237 25.4918C13.2519 27.8193 16.32 29.0536 20.9045 29.1594L21.4688 29.177ZM38.6078 1C38.6078 1 37.3206 9.92214 35.1518 12.4789L34.182 10.2924C34.182 10.2924 31.8015 22.0711 23.1439 29.3357C14.4862 22.0711 12.1058 10.2924 12.1058 10.2924L11.136 12.4789C8.94957 9.92214 7.68002 1 7.68002 1C2.98972 14.7888 4.40033 22.7411 4.40033 22.7411L6.23413 18.0685C4.45323 23.4817 5.1409 29.9881 5.1409 29.9881C3.92425 29.3534 0.0274235 23.4112 0.0274235 23.4112C-0.237067 33.2502 6.23413 38.8927 6.23413 38.8927L6.55152 37.4644C13.4988 45.787 21.3454 46.6687 21.3454 46.6687C17.3956 44.5704 16.2848 41.5023 16.2848 41.5023C16.179 42.3487 16.3906 43.6006 16.3906 43.6006C7.45079 36.6533 9.07299 24.0636 9.07299 24.0636C9.60197 33.3736 12.7053 37.9405 12.7053 37.9405C12.6348 32.1746 13.8162 31.3811 13.8162 31.3811L13.9749 33.6734L14.6097 32.2804L15.1563 33.5147L15.4208 32.5978L15.7382 33.7616C15.8968 32.8094 16.2671 32.5273 16.6903 32.5273C17.0606 32.5273 17.4309 32.7565 17.713 32.9504C18.2596 33.356 18.8062 33.7263 19.3705 34.0789C21.2219 35.1898 23.1086 36.1243 23.1086 36.1243C23.1086 36.1243 24.9953 35.1898 26.8467 34.0789C27.4286 33.7439 27.9752 33.356 28.5042 32.9504C28.7863 32.7389 29.1743 32.5273 29.5269 32.5273C29.9325 32.5273 30.3204 32.827 30.4791 33.7616L30.7965 32.5978L31.061 33.5147L31.6076 32.2804L32.2424 33.6734L32.401 31.3811C32.401 31.3811 33.5824 32.1746 33.5119 37.9405C33.5119 37.9405 36.6153 33.3913 37.1442 24.0636C37.1442 24.0636 38.7841 36.6357 29.8267 43.6006C29.8267 43.6006 30.0383 42.331 29.9325 41.5023C29.9325 41.5023 28.8216 44.5528 24.8719 46.6687C24.8719 46.6687 32.7184 45.7694 39.6657 37.4644L39.9831 38.8927C39.9831 38.8927 46.4543 33.2678 46.1898 23.4112C46.1898 23.4112 42.293 29.3534 41.0763 29.9881C41.0763 29.9881 41.764 23.4817 39.9831 18.0685L41.8169 22.7411C41.8698 22.7411 43.2804 14.7888 38.6078 1ZM25.3832 29.036C25.3832 29.036 30.9023 26.2853 34.3406 17.8216C34.3406 17.8216 39.4718 28.701 25.3832 29.036ZM20.8869 29.036C6.79838 28.701 11.9295 17.8216 11.9295 17.8216C15.3679 26.2853 20.8869 29.036 20.8869 29.036Z" fill="url(#paint0_linear)"/>
<path d="M7.62711 1.54661C7.9445 3.50384 9.14353 10.3277 11.0479 12.567L11.1713 12.7257L11.2595 12.5318L12.0706 10.698C12.2821 11.6149 12.9522 14.1187 14.257 17.1339C15.7911 20.6605 18.5594 25.6505 23.0557 29.4239L23.1439 29.4944L23.232 29.4239C27.7284 25.6505 30.4967 20.6605 32.0308 17.1339C33.3532 14.1011 34.0056 11.6149 34.2172 10.698L35.0283 12.5318L35.1165 12.7257L35.2399 12.567C37.1442 10.3277 38.3433 3.50384 38.6607 1.54661C40.9353 8.40573 41.6758 13.7484 41.8698 17.0458C42.0285 19.673 41.9051 21.4363 41.8169 22.2474L40.1594 18.0332L39.9126 18.1213C41.6582 23.4464 41.0058 29.9176 41.0058 29.9881L40.9882 30.2174L41.1998 30.1116C42.2754 29.5473 45.2729 25.1215 46.1193 23.8343C46.1546 28.6833 44.5323 32.4567 43.1217 34.7666C41.8522 36.8825 40.5474 38.2226 40.1065 38.6458L39.842 37.4468L39.7892 37.1999L39.6305 37.3939C36.0686 41.661 32.26 43.9356 29.6856 45.0817C27.9047 45.8752 26.4588 46.2631 25.6477 46.4395C28.2221 44.8701 29.4388 42.9305 29.8972 42.0489C29.8972 42.7895 29.7738 43.6006 29.7561 43.6182L29.7032 43.9356L29.9677 43.7416C34.6228 40.1269 36.3684 34.9782 37.0208 31.293C37.7261 27.308 37.3206 24.1341 37.3206 24.0988L37.0737 24.1165C36.6329 31.7691 34.4288 36.2478 33.7059 37.5349C33.7235 32.1922 32.5774 31.3811 32.5421 31.3459L32.3658 31.2224L32.3481 31.434L32.2247 33.2149L31.8015 32.2804L31.6781 32.0159L31.5547 32.2804L31.1491 33.1973L30.9904 32.6154L30.867 32.1746L30.7436 32.6154L30.5496 33.3031C30.3204 32.6154 29.9148 32.4567 29.5975 32.4567C29.1919 32.4567 28.7687 32.7036 28.4866 32.9152C27.8342 33.3913 27.3228 33.7439 26.8291 34.026C25.1716 35.0135 23.4789 35.8598 23.1439 36.0362C22.8089 35.8775 21.1161 35.0135 19.4587 34.026C18.9649 33.7263 18.4536 33.3913 17.8012 32.9152C17.5191 32.7036 17.0959 32.4567 16.6903 32.4567C16.3729 32.4567 15.9674 32.6154 15.7382 33.3031L15.5442 32.6154L15.4208 32.1746L15.2973 32.6154L15.1386 33.1973L14.7331 32.2804L14.6097 32.0159L14.4862 32.2804L14.063 33.2149L13.9396 31.434L13.922 31.2224L13.7457 31.3459C13.6928 31.3811 12.5643 32.1922 12.5819 37.5349C11.8413 36.2478 9.63724 31.7867 9.21405 24.1165L8.9672 24.0988C8.9672 24.1341 8.56165 27.308 9.26696 31.293C9.91937 34.9782 11.665 40.1269 16.32 43.7416L16.5845 43.9356L16.5316 43.6182C16.5316 43.6006 16.3906 42.7895 16.3906 42.0489C16.849 42.9305 18.0657 44.8701 20.64 46.4395C19.8289 46.2631 18.3831 45.8928 16.6022 45.0994C14.0278 43.9532 10.2191 41.6786 6.63968 37.4115L6.48099 37.2176L6.42809 37.4644L6.1636 38.6634C5.72278 38.2403 4.41797 36.9002 3.14841 34.7842C1.75543 32.4567 0.115589 28.701 0.150855 23.852C1.01486 25.1392 4.01241 29.565 5.07037 30.1292L5.28196 30.235L5.26434 30.0058C5.26434 29.9353 4.61193 23.4641 6.35756 18.139L6.1107 18.0508L4.45323 22.265C4.36506 21.4716 4.24164 19.6907 4.40033 17.0634C4.62955 13.7308 5.35249 8.40573 7.62711 1.54661ZM24.819 29.177L25.4009 29.1594C29.9854 29.0536 33.0535 27.8193 34.4817 25.4918C36.5271 22.1945 34.4817 17.804 34.4641 17.7511L34.3406 17.4866L34.2349 17.7511C32.4716 22.1063 30.1441 24.9099 28.5042 26.4792C26.7233 28.1896 25.348 28.8949 25.3303 28.8949L24.819 29.177ZM21.4688 29.177L20.9574 28.9126C20.9045 28.8773 15.4384 26.0913 12.0706 17.7511L11.9648 17.4866L11.8413 17.7511C11.8237 17.7863 9.79594 22.1769 11.8237 25.4918C13.2519 27.8193 16.32 29.0536 20.9045 29.1594L21.4688 29.177ZM38.6078 1C38.6078 1 37.3206 9.92214 35.1518 12.4789L34.182 10.2924C34.182 10.2924 31.8015 22.0711 23.1439 29.3357C14.4862 22.0711 12.1058 10.2924 12.1058 10.2924L11.136 12.4789C8.94957 9.92214 7.68002 1 7.68002 1C2.98972 14.7888 4.40033 22.7411 4.40033 22.7411L6.23413 18.0685C4.45323 23.4817 5.1409 29.9881 5.1409 29.9881C3.92425 29.3534 0.0274235 23.4112 0.0274235 23.4112C-0.237067 33.2502 6.23413 38.8927 6.23413 38.8927L6.55152 37.4644C13.4988 45.787 21.3454 46.6687 21.3454 46.6687C17.3956 44.5704 16.2848 41.5023 16.2848 41.5023C16.179 42.3487 16.3906 43.6006 16.3906 43.6006C7.45079 36.6533 9.07299 24.0636 9.07299 24.0636C9.60197 33.3736 12.7053 37.9405 12.7053 37.9405C12.6348 32.1746 13.8162 31.3811 13.8162 31.3811L13.9749 33.6734L14.6097 32.2804L15.1563 33.5147L15.4208 32.5978L15.7382 33.7616C15.8968 32.8094 16.2671 32.5273 16.6903 32.5273C17.0606 32.5273 17.4309 32.7565 17.713 32.9504C18.2596 33.356 18.8062 33.7263 19.3705 34.0789C21.2219 35.1898 23.1086 36.1243 23.1086 36.1243C23.1086 36.1243 24.9953 35.1898 26.8467 34.0789C27.4286 33.7439 27.9752 33.356 28.5042 32.9504C28.7863 32.7389 29.1743 32.5273 29.5269 32.5273C29.9325 32.5273 30.3204 32.827 30.4791 33.7616L30.7965 32.5978L31.061 33.5147L31.6076 32.2804L32.2424 33.6734L32.401 31.3811C32.401 31.3811 33.5824 32.1746 33.5119 37.9405C33.5119 37.9405 36.6153 33.3913 37.1442 24.0636C37.1442 24.0636 38.7841 36.6357 29.8267 43.6006C29.8267 43.6006 30.0383 42.331 29.9325 41.5023C29.9325 41.5023 28.8216 44.5528 24.8719 46.6687C24.8719 46.6687 32.7184 45.7694 39.6657 37.4644L39.9831 38.8927C39.9831 38.8927 46.4543 33.2678 46.1898 23.4112C46.1898 23.4112 42.293 29.3534 41.0763 29.9881C41.0763 29.9881 41.764 23.4817 39.9831 18.0685L41.8169 22.7411C41.8698 22.7411 43.2804 14.7888 38.6078 1ZM25.3832 29.036C25.3832 29.036 30.9023 26.2853 34.3406 17.8216C34.3406 17.8216 39.4718 28.701 25.3832 29.036ZM20.8869 29.036C6.79838 28.701 11.9295 17.8216 11.9295 17.8216C15.3679 26.2853 20.8869 29.036 20.8869 29.036Z" fill="#F2B916"/>
</g>
<defs>
<linearGradient id="paint0_linear" x1="0.0195593" y1="23.8343" x2="46.1977" y2="23.8343" gradientUnits="userSpaceOnUse">
<stop offset="0.0135132" stop-color="#D0D1D3"/>
<stop offset="0.291" stop-color="#F1F1F1"/>
<stop offset="0.4315" stop-color="#E9E9EA"/>
<stop offset="1" stop-color="#CBCCCE"/>
</linearGradient>
<clipPath id="clip0">
<rect width="185" height="47" fill="white"/>
</clipPath>
</defs>
</svg>
