<svg width="16" height="16" viewBox="0 0 16 16" fill="none" xmlns="http://www.w3.org/2000/svg">
<path d="M8 1.33301C6.68146 1.33301 5.39252 1.724 4.2962 2.45654C3.19987 3.18909 2.34539 4.23028 1.8408 5.44845C1.33622 6.66663 1.20419 8.00707 1.46143 9.30028C1.71866 10.5935 2.3536 11.7814 3.28595 12.7137C4.2183 13.6461 5.40619 14.281 6.6994 14.5382C7.9926 14.7955 9.33305 14.6635 10.5512 14.1589C11.7694 13.6543 12.8106 12.7998 13.5431 11.7035C14.2757 10.6071 14.6667 9.31822 14.6667 7.99967C14.6667 7.1242 14.4942 6.25729 14.1592 5.44845C13.8242 4.63961 13.3331 3.90469 12.714 3.28563C12.095 2.66657 11.3601 2.17551 10.5512 1.84048C9.74238 1.50545 8.87548 1.33301 8 1.33301ZM10 8.66634H6C5.82319 8.66634 5.65362 8.5961 5.52859 8.47108C5.40357 8.34606 5.33333 8.17649 5.33333 7.99967C5.33333 7.82286 5.40357 7.65329 5.52859 7.52827C5.65362 7.40325 5.82319 7.33301 6 7.33301H10C10.1768 7.33301 10.3464 7.40325 10.4714 7.52827C10.5964 7.65329 10.6667 7.82286 10.6667 7.99967C10.6667 8.17649 10.5964 8.34606 10.4714 8.47108C10.3464 8.5961 10.1768 8.66634 10 8.66634Z" fill="#72727E"/>
</svg>
