<svg width="24" height="24" viewBox="0 0 24 24" fill="none" xmlns="http://www.w3.org/2000/svg">
<path d="M16.1973 14.7416L15.676 15.4356L16.2898 16.0493L20.6716 20.4311C20.6945 20.462 20.7065 20.4998 20.7055 20.5385C20.7042 20.5824 20.6862 20.6241 20.6552 20.6552C20.6241 20.6862 20.5824 20.7042 20.5385 20.7055C20.4998 20.7065 20.462 20.6945 20.4311 20.6716L16.0493 16.2898L15.4356 15.676L14.7416 16.1973C13.5015 17.1288 11.9921 17.6317 10.4411 17.63H10.44C6.47635 17.63 3.25 14.4037 3.25 10.44C3.25 6.47635 6.47635 3.25 10.44 3.25C14.4037 3.25 17.63 6.47635 17.63 10.44L17.63 10.4411C17.6317 11.9921 17.1288 13.5015 16.1973 14.7416ZM3.59 10.44L3.59 10.4412C3.59218 12.2569 4.31445 13.9977 5.59837 15.2816C6.8823 16.5656 8.62305 17.2878 10.4388 17.29H10.44C11.7948 17.29 13.1192 16.8883 14.2457 16.1356C15.3721 15.3829 16.2501 14.3131 16.7686 13.0614C17.287 11.8097 17.4227 10.4324 17.1584 9.10363C16.8941 7.77486 16.2417 6.55431 15.2837 5.59632C14.3257 4.63833 13.1051 3.98593 11.7764 3.72162C10.4476 3.45731 9.07029 3.59297 7.81862 4.11143C6.56694 4.62989 5.49712 5.50787 4.74443 6.63434C3.99175 7.76082 3.59 9.0852 3.59 10.44Z" fill="#E4E4EB" stroke="#E4E4EB" stroke-width="2" stroke-miterlimit="10"/>
</svg>
