<svg width="36" height="36" viewBox="0 0 36 36" fill="none" xmlns="http://www.w3.org/2000/svg">
<path d="M13.3636 1V5.63636M22.6364 1V5.63636M13.3636 30.3636V35M22.6364 30.3636V35M30.3636 13.3636H35M30.3636 21.0909H35M1 13.3636H5.63636M1 21.0909H5.63636M8.72727 5.63636H27.2727C28.9798 5.63636 30.3636 7.02021 30.3636 8.72727V27.2727C30.3636 28.9798 28.9798 30.3636 27.2727 30.3636H8.72727C7.02021 30.3636 5.63636 28.9798 5.63636 27.2727V8.72727C5.63636 7.02021 7.02021 5.63636 8.72727 5.63636ZM13.3636 13.3636H22.6364V22.6364H13.3636V13.3636Z" stroke="#F2BA16" stroke-width="2" stroke-linecap="round" stroke-linejoin="round"/>
</svg>
