<svg width="35" height="35" viewBox="0 0 35 35" fill="none" xmlns="http://www.w3.org/2000/svg">
<path d="M24.7917 2.91699H10.2084C6.18134 2.91699 2.91675 6.18158 2.91675 10.2087V24.792C2.91675 28.8191 6.18134 32.0837 10.2084 32.0837H24.7917C28.8188 32.0837 32.0834 28.8191 32.0834 24.792V10.2087C32.0834 6.18158 28.8188 2.91699 24.7917 2.91699Z" stroke="#25B072" stroke-width="3" stroke-linecap="round" stroke-linejoin="round"/>
<path d="M23.3333 16.5812C23.5133 17.7949 23.306 19.0344 22.7409 20.1235C22.1758 21.2126 21.2817 22.0958 20.1857 22.6474C19.0897 23.199 17.8477 23.391 16.6363 23.1961C15.425 23.0012 14.3059 22.4292 13.4383 21.5616C12.5707 20.6941 11.9988 19.575 11.8038 18.3636C11.6089 17.1522 11.8009 15.9102 12.3525 14.8142C12.9042 13.7183 13.7873 12.8242 14.8764 12.2591C15.9655 11.694 17.205 11.4866 18.4187 11.6666C19.6567 11.8502 20.8029 12.4271 21.6879 13.3121C22.5728 14.197 23.1497 15.3432 23.3333 16.5812Z" stroke="#25B072" stroke-width="3" stroke-linecap="round" stroke-linejoin="round"/>
<path d="M25.5208 9.47949H25.5349" stroke="#25B072" stroke-width="3" stroke-linecap="round" stroke-linejoin="round"/>
</svg>
