<svg width="35" height="35" viewBox="0 0 35 35" fill="none" xmlns="http://www.w3.org/2000/svg">
<path d="M32.8709 9.36217C32.6976 8.67006 32.3448 8.03592 31.8481 7.52381C31.3513 7.01169 30.7282 6.63974 30.0417 6.44551C27.5334 5.83301 17.5 5.83301 17.5 5.83301C17.5 5.83301 7.46669 5.83301 4.95835 6.50384C4.27184 6.69807 3.64874 7.07003 3.15198 7.58214C2.65523 8.09426 2.30242 8.7284 2.12919 9.42051C1.67012 11.9661 1.44557 14.5485 1.45835 17.1351C1.44199 19.7412 1.66656 22.3432 2.12919 24.908C2.32017 25.5786 2.68088 26.1886 3.17648 26.6791C3.67208 27.1696 4.2858 27.524 4.95835 27.708C7.46669 28.3788 17.5 28.3788 17.5 28.3788C17.5 28.3788 27.5334 28.3788 30.0417 27.708C30.7282 27.5138 31.3513 27.1418 31.8481 26.6297C32.3448 26.1176 32.6976 25.4834 32.8709 24.7913C33.3264 22.2649 33.5509 19.7022 33.5417 17.1351C33.5581 14.529 33.3335 11.9269 32.8709 9.36217V9.36217Z" stroke="#25B072" stroke-width="2" stroke-linecap="round" stroke-linejoin="round"/>
<path d="M14.2188 21.9037L22.6042 17.135L14.2188 12.3662V21.9037Z" stroke="#25B072" stroke-width="2" stroke-linecap="round" stroke-linejoin="round"/>
</svg>
